<?xml version="1.0" encoding="utf-8" ?>
<!DOCTYPE svg PUBLIC "-//W3C//DTD SVG 1.1//EN" "http://www.w3.org/Graphics/SVG/1.1/DTD/svg11.dtd">
<svg version="1.1" xmlns="http://www.w3.org/2000/svg" x="0px" y="0px" style="width:135px;height:135px;">
  <!--<polygon points="0.25 6.25 12.25 6.25 12.25 0 24 12.5 12.25 24 12.25 18.5 0.25 18.5 0.25 6.25" style="stroke: black; stroke-width: 0.5px; fill: none;"></polygon>
  <polygon points="25.25 12.5 37.5 0.25 49.75 12.5 43.75 12.5 43.75 24.75 31.25 24.75 31.25 12.5 25.25 12.5" style="stroke: black; stroke-width: 0.25px; fill: none;"></polygon>
  <polygon points="50.25 12.5 56.25 12.5 56.25 0.25 68.75 0.25 68.75 12.5 74.75 12.5 62.5 24.75 50.25 12.5" style="stroke: black; stroke-width: 0.25px; fill: none;"></polygon>
  <polygon points="75.25 12.5 87.5 0.25 87.5 6.25 99.75 6.25 99.75 18.75 87.5 18.75 87.5 18.75 87.5 24.75 75.25 12.5" style="stroke: black; stroke-width: 0.25px; fill: none;"></polygon>
  <rect x="0.25" y="25.25" rx="0" ry="0" width="24.5" height="24.5" style="stroke:black;stroke-width:0.5px;fill:none;"></rect>
  <rect x="25.25" y="25.25" rx="6" ry="6" width="24.5" height="24.5" style="stroke:black;stroke-width:0.5px;fill:none;"></rect>
  <ellipse cx="62.5" cy="37.5" rx="12" ry="12" style="stroke:black;stroke-width:0.5px;fill:none;"></ellipse>-->
  <polygon transform="translate(10,10)scale(0.25)" points="0 25 50 25 50 0 99 50 50 100 50 75 0 75 0 25" style="stroke: black; stroke-width: 2px; fill: none;"></polygon>
  <polygon transform="translate(40,10)scale(0.25)" points="0 50 50 0 100 50 75 50 75 100 25 100 25 50 0 50" style="stroke: black; stroke-width: 2px; fill: none;"></polygon>
  <polygon transform="translate(70,10)scale(0.25)" points="0 50 25 50 25 0 75 0 75 50 100 50 50 100 0 50" style="stroke: black; stroke-width: 2px; fill: none;"></polygon>
  <polygon transform="translate(100,10)scale(0.25)" points="0 50 50 1 50 25 100 25 100 75 50 75 50 75 50 100 0 50" style="stroke: black; stroke-width: 2px; fill: none;"></polygon>
  <rect transform="translate(10,40)scale(0.25)" x="0" y="0" rx="0" ry="0" width="100" height="100" style="stroke:black;stroke-width:2px;fill:none;"></rect>
  <rect transform="translate(40,40)scale(0.25)" x="0" y="0" rx="20" ry="20" width="100" height="100" style="stroke:black;stroke-width:2px;fill:none;"></rect>
  <ellipse transform="translate(70,40)scale(0.25)" cx="50" cy="50" rx="49" ry="49" style="stroke:black;stroke-width:2px;fill:none;"></ellipse>
  <ellipse transform="translate(100,40)scale(0.25)" cx="50" cy="50" rx="49" ry="30" style="stroke:black;stroke-width:2px;fill:none;"></ellipse>
  <ellipse transform="translate(10,70)scale(0.25)" cx="50" cy="50" rx="30" ry="49" style="stroke:black;stroke-width:2px;fill:none;"></ellipse>
</svg>